<?xml version="1.0" encoding="UTF-8" standalone="no"?> <!-- Created with Vectornator for iOS (http://vectornator.io/) --><!DOCTYPE svg PUBLIC "-//W3C//DTD SVG 1.1//EN" "http://www.w3.org/Graphics/SVG/1.1/DTD/svg11.dtd">
<svg height="100%" style="fill-rule:evenodd;clip-rule:evenodd;stroke-linecap:round;stroke-linejoin:round;" xmlns:xlink="http://www.w3.org/1999/xlink" xmlns="http://www.w3.org/2000/svg" xml:space="preserve" width="100%" xmlns:vectornator="http://vectornator.io" version="1.1" viewBox="0 0 100 100">
<metadata>
<vectornator:setting key="DisplayWhiteBackground" value="0"/>
<vectornator:setting key="RulersVisible" value="1"/>
<vectornator:setting key="GridSpacing" value="36"/>
<vectornator:setting key="Units" value="Pixels"/>
<vectornator:setting key="DynamicGuides" value="0"/>
<vectornator:setting key="SnapToPoints" value="0"/>
<vectornator:setting key="CMYKEnabledKey" value="0"/>
<vectornator:setting key="SnapToGrid" value="0"/>
<vectornator:setting key="SnapToGuides" value="1"/>
<vectornator:setting key="ShowGrid" value="0"/>
<vectornator:setting key="SnapToEdges" value="0"/>
</metadata>
<defs/>
<g id="Layer 1" vectornator:layerName="Layer 1">
<path d="M238.125+276.866L277.356+276.866L290.869+302.454L278.693+312.063L221.359+310.628L233.734+299.57L238.125+276.866Z" opacity="1" fill="#bfbfbf"/>
<path d="M181.043+193.841L341.299+193.841C343.434+193.841+345.165+195.365+345.165+197.244L345.165+288.689C345.165+290.568+343.434+292.092+341.299+292.092L181.043+292.092C178.908+292.092+177.177+290.568+177.177+288.689L177.177+197.244C177.177+195.365+178.908+193.841+181.043+193.841Z" opacity="1" fill="#bfbfbf"/>
<path d="M238.125+276.866L277.356+276.866L290.869+302.454L278.693+312.063L221.359+310.628L233.734+299.57L238.125+276.866Z" opacity="1" fill="#bfbfbf"/>
<path d="M181.043+193.841L341.299+193.841C343.434+193.841+345.165+195.365+345.165+197.244L345.165+288.689C345.165+290.568+343.434+292.092+341.299+292.092L181.043+292.092C178.908+292.092+177.177+290.568+177.177+288.689L177.177+197.244C177.177+195.365+178.908+193.841+181.043+193.841Z" opacity="1" fill="#bfbfbf"/>
<path d="M238.125+276.866L277.356+276.866L290.869+302.454L278.693+312.063L221.359+310.628L233.734+299.57L238.125+276.866Z" opacity="1" fill="#bfbfbf"/>
<path d="M181.043+193.841L341.299+193.841C343.434+193.841+345.165+195.365+345.165+197.244L345.165+288.689C345.165+290.568+343.434+292.092+341.299+292.092L181.043+292.092C178.908+292.092+177.177+290.568+177.177+288.689L177.177+197.244C177.177+195.365+178.908+193.841+181.043+193.841Z" opacity="1" fill="#bfbfbf"/>
<path d="M188.523+212.77L228.89+212.77L228.89+264.043L188.523+264.043L188.523+212.77Z" opacity="1" fill="#5ea606"/>
<g opacity="1">
<g opacity="1">
<path d="M190.873+239.854L192.45+239.854L201.406+239.854L201.406+263.994L190.873+263.994L190.873+239.854Z" opacity="1" fill="#3d6d02"/>
<path d="M192.029+233.716L200.25+233.716L200.25+240.982L192.029+240.982L192.029+233.716Z" opacity="1" fill="#3d6d02"/>
<path d="M193.305+228.693L198.975+228.693L198.975+233.855L193.305+233.855L193.305+228.693Z" opacity="1" fill="#3d6d02"/>
</g>
<path d="M195.838+217.722L196.846+229.153L194.992+229.179L195.838+217.722Z" opacity="1" fill="#3d6d02"/>
</g>
<path d="M202.426+228.861L213.095+223.568L213.278+263.999L202.426+263.999L202.426+228.861Z" opacity="1" fill="#3d6d02"/>
<path d="M214.168+244.615L226.539+244.615L226.539+263.973L214.168+263.973L214.168+244.615Z" opacity="1" fill="#3d6d02"/>
<path d="M230.465+213.612L267.004+213.612L267.004+218.649L230.465+218.649L230.465+213.612Z" fill-opacity="0.579615" fill="#3ebd0c" opacity="1"/>
<path d="M230.465+225.72L278.356+225.72L278.356+228.536L230.465+228.536L230.465+225.72Z" fill-opacity="0.579615" fill="#81e803" opacity="1"/>
<path d="M230.465+229.516L278.356+229.516L278.356+232.332L230.465+232.332L230.465+229.516Z" fill-opacity="0.579615" fill="#81e803" opacity="1"/>
<path d="M230.465+233.584L278.356+233.584L278.356+236.4L230.465+236.4L230.465+233.584Z" fill-opacity="0.579615" fill="#81e803" opacity="1"/>
<path d="M230.465+237.856L260.697+237.856L260.697+240.673L230.465+240.673L230.465+237.856Z" fill-opacity="0.579615" fill="#81e803" opacity="1"/>
<path d="M230.465+245.721L278.356+245.721L278.356+248.537L230.465+248.537L230.465+245.721Z" fill-opacity="0.579615" fill="#81e803" opacity="1"/>
<path d="M230.465+219.125L254.866+219.125L254.866+220.823L230.465+220.823L230.465+219.125Z" fill-opacity="0.579615" fill="#18ff00" opacity="1"/>
<path d="M230.465+249.357L278.356+249.357L278.356+252.173L230.465+252.173L230.465+249.357Z" fill-opacity="0.579615" fill="#81e803" opacity="1"/>
<path d="M230.465+253.424L278.356+253.424L278.356+256.241L230.465+256.241L230.465+253.424Z" fill-opacity="0.579615" fill="#81e803" opacity="1"/>
<path d="M230.465+257.11L278.356+257.11L278.356+259.926L230.465+259.926L230.465+257.11Z" fill-opacity="0.579615" fill="#81e803" opacity="1"/>
<path d="M230.465+261.178L261.462+261.178L261.462+263.994L230.465+263.994L230.465+261.178Z" fill-opacity="0.579615" fill="#81e803" opacity="1"/>
<path d="M188.523+212.77L228.89+212.77L228.89+264.043L188.523+264.043L188.523+212.77Z" opacity="1" fill="#5ea606"/>
<g opacity="1">
<g opacity="1">
<path d="M190.873+239.854L192.45+239.854L201.406+239.854L201.406+263.994L190.873+263.994L190.873+239.854Z" opacity="1" fill="#3d6d02"/>
<path d="M192.029+233.716L200.25+233.716L200.25+240.982L192.029+240.982L192.029+233.716Z" opacity="1" fill="#3d6d02"/>
<path d="M193.305+228.693L198.975+228.693L198.975+233.855L193.305+233.855L193.305+228.693Z" opacity="1" fill="#3d6d02"/>
</g>
<path d="M195.838+217.722L196.846+229.153L194.992+229.179L195.838+217.722Z" opacity="1" fill="#3d6d02"/>
</g>
<path d="M202.426+228.861L213.095+223.568L213.278+263.999L202.426+263.999L202.426+228.861Z" opacity="1" fill="#3d6d02"/>
<path d="M214.168+244.615L226.539+244.615L226.539+263.973L214.168+263.973L214.168+244.615Z" opacity="1" fill="#3d6d02"/>
<path d="M230.465+213.612L267.004+213.612L267.004+218.649L230.465+218.649L230.465+213.612Z" fill-opacity="0.579615" fill="#3ebd0c" opacity="1"/>
<path d="M230.465+225.72L278.356+225.72L278.356+228.536L230.465+228.536L230.465+225.72Z" fill-opacity="0.579615" fill="#81e803" opacity="1"/>
<path d="M230.465+229.516L278.356+229.516L278.356+232.332L230.465+232.332L230.465+229.516Z" fill-opacity="0.579615" fill="#81e803" opacity="1"/>
<path d="M230.465+233.584L278.356+233.584L278.356+236.4L230.465+236.4L230.465+233.584Z" fill-opacity="0.579615" fill="#81e803" opacity="1"/>
<path d="M230.465+237.856L260.697+237.856L260.697+240.673L230.465+240.673L230.465+237.856Z" fill-opacity="0.579615" fill="#81e803" opacity="1"/>
<path d="M230.465+245.721L278.356+245.721L278.356+248.537L230.465+248.537L230.465+245.721Z" fill-opacity="0.579615" fill="#81e803" opacity="1"/>
<path d="M230.465+219.125L254.866+219.125L254.866+220.823L230.465+220.823L230.465+219.125Z" fill-opacity="0.579615" fill="#18ff00" opacity="1"/>
<path d="M230.465+249.357L278.356+249.357L278.356+252.173L230.465+252.173L230.465+249.357Z" fill-opacity="0.579615" fill="#81e803" opacity="1"/>
<path d="M230.465+253.424L278.356+253.424L278.356+256.241L230.465+256.241L230.465+253.424Z" fill-opacity="0.579615" fill="#81e803" opacity="1"/>
<path d="M230.465+257.11L278.356+257.11L278.356+259.926L230.465+259.926L230.465+257.11Z" fill-opacity="0.579615" fill="#81e803" opacity="1"/>
<path d="M230.465+261.178L261.462+261.178L261.462+263.994L230.465+263.994L230.465+261.178Z" fill-opacity="0.579615" fill="#81e803" opacity="1"/>
<path d="M43.8197+12.8131L70.5932+13.0263L70.5932+85.3924L28.0245+85.3924L28.2634+29.9383L43.8197+12.8131Z" opacity="1" fill="#0bde04"/>
<path d="M43.789+12.8997L44.0647+29.7374L28.2698+29.9727" opacity="1" fill="#07b501"/>
<text x="0" font-family="HelveticaNeue-Bold" y="0" text-anchor="middle" vectornator:text="HTML" fill="#ffffff" font-size="5" vectornator:width="20.1065" opacity="1" transform="matrix(2.29972 0 0 2.59502 26.1892 42.5672)">
<tspan x="10.0532" y="5" textLength="14.26">
HTML</tspan>
</text>
</g>
</svg>
